<mxfile host="app.diagrams.net" modified="2024-01-22T18:37:57.782Z" agent="Mozilla/5.0 (Windows NT 10.0; Win64; x64) AppleWebKit/537.36 (KHTML, like Gecko) Chrome/120.0.0.0 Safari/537.36" etag="Ardx5-jtZ8XDizGytvvx" version="22.1.21" type="device">
  <diagram name="Страница — 1" id="xHZwC6djE1XtZh8gV70N">
    <mxGraphModel dx="916" dy="494" grid="1" gridSize="10" guides="1" tooltips="1" connect="1" arrows="1" fold="1" page="1" pageScale="1" pageWidth="827" pageHeight="1169" math="0" shadow="0">
      <root>
        <mxCell id="0" />
        <mxCell id="1" parent="0" />
        <mxCell id="q90yUFIjDZM4mzIHDr9L-6" style="edgeStyle=orthogonalEdgeStyle;rounded=0;orthogonalLoop=1;jettySize=auto;html=1;exitX=0.5;exitY=1;exitDx=0;exitDy=0;entryX=0.5;entryY=0;entryDx=0;entryDy=0;" parent="1" source="q90yUFIjDZM4mzIHDr9L-2" target="q90yUFIjDZM4mzIHDr9L-5" edge="1">
          <mxGeometry relative="1" as="geometry" />
        </mxCell>
        <mxCell id="q90yUFIjDZM4mzIHDr9L-2" value="enum Days:" style="rounded=0;whiteSpace=wrap;html=1;" parent="1" vertex="1">
          <mxGeometry x="371" y="100" width="86" height="40" as="geometry" />
        </mxCell>
        <mxCell id="q90yUFIjDZM4mzIHDr9L-4" style="edgeStyle=orthogonalEdgeStyle;rounded=0;orthogonalLoop=1;jettySize=auto;html=1;entryX=0.5;entryY=0;entryDx=0;entryDy=0;" parent="1" source="q90yUFIjDZM4mzIHDr9L-3" target="q90yUFIjDZM4mzIHDr9L-2" edge="1">
          <mxGeometry relative="1" as="geometry" />
        </mxCell>
        <mxCell id="q90yUFIjDZM4mzIHDr9L-3" value="Начало" style="ellipse;whiteSpace=wrap;html=1;" parent="1" vertex="1">
          <mxGeometry x="369" y="30" width="90" height="40" as="geometry" />
        </mxCell>
        <mxCell id="q90yUFIjDZM4mzIHDr9L-8" style="edgeStyle=orthogonalEdgeStyle;rounded=0;orthogonalLoop=1;jettySize=auto;html=1;entryX=0.5;entryY=0;entryDx=0;entryDy=0;" parent="1" source="q90yUFIjDZM4mzIHDr9L-5" target="q90yUFIjDZM4mzIHDr9L-7" edge="1">
          <mxGeometry relative="1" as="geometry" />
        </mxCell>
        <mxCell id="q90yUFIjDZM4mzIHDr9L-5" value="&quot;Введите № дня недели : &quot;" style="shape=parallelogram;perimeter=parallelogramPerimeter;whiteSpace=wrap;html=1;fixedSize=1;" parent="1" vertex="1">
          <mxGeometry x="336" y="160" width="156" height="40" as="geometry" />
        </mxCell>
        <mxCell id="q90yUFIjDZM4mzIHDr9L-12" style="edgeStyle=orthogonalEdgeStyle;rounded=0;orthogonalLoop=1;jettySize=auto;html=1;entryX=0.5;entryY=0;entryDx=0;entryDy=0;" parent="1" source="q90yUFIjDZM4mzIHDr9L-7" target="q90yUFIjDZM4mzIHDr9L-10" edge="1">
          <mxGeometry relative="1" as="geometry" />
        </mxCell>
        <mxCell id="q90yUFIjDZM4mzIHDr9L-18" style="edgeStyle=orthogonalEdgeStyle;rounded=0;orthogonalLoop=1;jettySize=auto;html=1;entryX=1;entryY=0.5;entryDx=0;entryDy=0;" parent="1" source="q90yUFIjDZM4mzIHDr9L-7" target="q90yUFIjDZM4mzIHDr9L-9" edge="1">
          <mxGeometry relative="1" as="geometry" />
        </mxCell>
        <mxCell id="q90yUFIjDZM4mzIHDr9L-7" value="&lt;div&gt;if (dayNumber &amp;lt; 1 || dayNumber &amp;gt; 7) {&lt;/div&gt;&lt;div&gt;&amp;nbsp; &amp;nbsp; &amp;nbsp; &amp;nbsp;&amp;nbsp;&lt;br&gt;&lt;/div&gt;" style="rhombus;whiteSpace=wrap;html=1;" parent="1" vertex="1">
          <mxGeometry x="291" y="250" width="246" height="110" as="geometry" />
        </mxCell>
        <mxCell id="q90yUFIjDZM4mzIHDr9L-9" value="&lt;div style=&quot;border-color: var(--border-color);&quot;&gt;printf(&quot;Ошибка&quot;)&lt;/div&gt;" style="shape=parallelogram;perimeter=parallelogramPerimeter;whiteSpace=wrap;html=1;fixedSize=1;" parent="1" vertex="1">
          <mxGeometry y="350" width="250" height="60" as="geometry" />
        </mxCell>
        <mxCell id="q90yUFIjDZM4mzIHDr9L-16" style="edgeStyle=orthogonalEdgeStyle;rounded=0;orthogonalLoop=1;jettySize=auto;html=1;entryX=1;entryY=0.5;entryDx=0;entryDy=0;" parent="1" source="q90yUFIjDZM4mzIHDr9L-10" target="q90yUFIjDZM4mzIHDr9L-14" edge="1">
          <mxGeometry relative="1" as="geometry" />
        </mxCell>
        <mxCell id="q90yUFIjDZM4mzIHDr9L-10" value="&lt;div&gt;switch (day) {&lt;/div&gt;&lt;div&gt;&amp;nbsp; &amp;nbsp; &amp;nbsp; &amp;nbsp; case Monday:&lt;/div&gt;&lt;div&gt;&amp;nbsp; &amp;nbsp; &amp;nbsp; &amp;nbsp; &amp;nbsp; &amp;nbsp; printf(&quot;Понедельник\n&quot;);&lt;/div&gt;&lt;div&gt;&amp;nbsp; &amp;nbsp; &amp;nbsp; &amp;nbsp; &amp;nbsp; &amp;nbsp; break;&lt;br&gt;...&lt;/div&gt;" style="rounded=0;whiteSpace=wrap;html=1;" parent="1" vertex="1">
          <mxGeometry x="590" y="330" width="180" height="80" as="geometry" />
        </mxCell>
        <mxCell id="q90yUFIjDZM4mzIHDr9L-14" value="Конец" style="ellipse;whiteSpace=wrap;html=1;" parent="1" vertex="1">
          <mxGeometry x="354" y="420" width="120" height="80" as="geometry" />
        </mxCell>
        <mxCell id="q90yUFIjDZM4mzIHDr9L-24" value="" style="endArrow=none;html=1;rounded=0;exitX=0.5;exitY=0;exitDx=0;exitDy=0;" parent="1" source="q90yUFIjDZM4mzIHDr9L-9" edge="1">
          <mxGeometry width="50" height="50" relative="1" as="geometry">
            <mxPoint x="90" y="320" as="sourcePoint" />
            <mxPoint x="125" y="180" as="targetPoint" />
          </mxGeometry>
        </mxCell>
        <mxCell id="q90yUFIjDZM4mzIHDr9L-25" value="" style="endArrow=classic;html=1;rounded=0;entryX=0;entryY=0.5;entryDx=0;entryDy=0;" parent="1" target="q90yUFIjDZM4mzIHDr9L-5" edge="1">
          <mxGeometry width="50" height="50" relative="1" as="geometry">
            <mxPoint x="120" y="180" as="sourcePoint" />
            <mxPoint x="220" y="170" as="targetPoint" />
          </mxGeometry>
        </mxCell>
        <mxCell id="q90yUFIjDZM4mzIHDr9L-26" value="Нет" style="text;html=1;strokeColor=none;fillColor=none;align=center;verticalAlign=middle;whiteSpace=wrap;rounded=0;" parent="1" vertex="1">
          <mxGeometry x="530" y="280" width="60" height="30" as="geometry" />
        </mxCell>
        <mxCell id="q90yUFIjDZM4mzIHDr9L-27" value="Да" style="text;html=1;strokeColor=none;fillColor=none;align=center;verticalAlign=middle;whiteSpace=wrap;rounded=0;" parent="1" vertex="1">
          <mxGeometry x="240" y="280" width="60" height="30" as="geometry" />
        </mxCell>
      </root>
    </mxGraphModel>
  </diagram>
</mxfile>
